<mxfile host="app.diagrams.net" modified="2021-05-16T15:24:42.941Z" agent="5.0 (Macintosh; Intel Mac OS X 10_13_6) AppleWebKit/537.36 (KHTML, like Gecko) Chrome/90.0.4430.212 Safari/537.36" etag="V58r73uimu_gNykXLTfT" version="14.6.13" type="github">
  <diagram id="pXRyJAcRm1rrHj3tQfYz" name="Page-1">
    <mxGraphModel dx="1186" dy="677" grid="1" gridSize="10" guides="1" tooltips="1" connect="1" arrows="1" fold="1" page="1" pageScale="1" pageWidth="583" pageHeight="827" math="0" shadow="0">
      <root>
        <mxCell id="0" />
        <mxCell id="1" parent="0" />
        <mxCell id="j5U2qsDuNFhOHYrmy9tw-1" value="App" style="rounded=0;whiteSpace=wrap;html=1;" vertex="1" parent="1">
          <mxGeometry x="40" y="100" width="170" height="140" as="geometry" />
        </mxCell>
        <mxCell id="j5U2qsDuNFhOHYrmy9tw-2" value="Xdf Server" style="rounded=0;whiteSpace=wrap;html=1;" vertex="1" parent="1">
          <mxGeometry x="710" y="100" width="450" height="190" as="geometry" />
        </mxCell>
        <mxCell id="j5U2qsDuNFhOHYrmy9tw-3" value="3425" style="ellipse;whiteSpace=wrap;html=1;aspect=fixed;" vertex="1" parent="1">
          <mxGeometry x="150" y="110" width="40" height="40" as="geometry" />
        </mxCell>
        <mxCell id="j5U2qsDuNFhOHYrmy9tw-4" value="80" style="ellipse;whiteSpace=wrap;html=1;aspect=fixed;" vertex="1" parent="1">
          <mxGeometry x="720" y="110" width="40" height="40" as="geometry" />
        </mxCell>
        <mxCell id="j5U2qsDuNFhOHYrmy9tw-5" value="" style="endArrow=none;html=1;exitX=1;exitY=0.5;exitDx=0;exitDy=0;entryX=0;entryY=0.5;entryDx=0;entryDy=0;" edge="1" parent="1" source="j5U2qsDuNFhOHYrmy9tw-3" target="j5U2qsDuNFhOHYrmy9tw-4">
          <mxGeometry width="50" height="50" relative="1" as="geometry">
            <mxPoint x="270" y="370" as="sourcePoint" />
            <mxPoint x="320" y="320" as="targetPoint" />
          </mxGeometry>
        </mxCell>
        <mxCell id="j5U2qsDuNFhOHYrmy9tw-6" value="http://www.xdf.com" style="edgeLabel;html=1;align=center;verticalAlign=middle;resizable=0;points=[];" vertex="1" connectable="0" parent="j5U2qsDuNFhOHYrmy9tw-5">
          <mxGeometry x="-0.0377" y="1" relative="1" as="geometry">
            <mxPoint as="offset" />
          </mxGeometry>
        </mxCell>
        <mxCell id="j5U2qsDuNFhOHYrmy9tw-7" value="443" style="ellipse;whiteSpace=wrap;html=1;aspect=fixed;" vertex="1" parent="1">
          <mxGeometry x="720" y="160" width="40" height="40" as="geometry" />
        </mxCell>
        <mxCell id="j5U2qsDuNFhOHYrmy9tw-8" value="" style="endArrow=none;html=1;exitX=1;exitY=1;exitDx=0;exitDy=0;entryX=0;entryY=0.5;entryDx=0;entryDy=0;" edge="1" parent="1" source="j5U2qsDuNFhOHYrmy9tw-3" target="j5U2qsDuNFhOHYrmy9tw-7">
          <mxGeometry width="50" height="50" relative="1" as="geometry">
            <mxPoint x="330" y="370" as="sourcePoint" />
            <mxPoint x="380" y="320" as="targetPoint" />
          </mxGeometry>
        </mxCell>
        <mxCell id="j5U2qsDuNFhOHYrmy9tw-9" value="https://www.xdf.com" style="edgeLabel;html=1;align=center;verticalAlign=middle;resizable=0;points=[];" vertex="1" connectable="0" parent="j5U2qsDuNFhOHYrmy9tw-8">
          <mxGeometry x="0.0515" y="2" relative="1" as="geometry">
            <mxPoint as="offset" />
          </mxGeometry>
        </mxCell>
        <mxCell id="j5U2qsDuNFhOHYrmy9tw-10" value="tls1.2 rsa" style="text;html=1;strokeColor=none;fillColor=none;align=center;verticalAlign=middle;whiteSpace=wrap;rounded=0;" vertex="1" parent="1">
          <mxGeometry x="430" y="170" width="40" height="20" as="geometry" />
        </mxCell>
        <mxCell id="j5U2qsDuNFhOHYrmy9tw-11" value="proxy server" style="rounded=0;whiteSpace=wrap;html=1;" vertex="1" parent="1">
          <mxGeometry x="400" y="240" width="120" height="60" as="geometry" />
        </mxCell>
        <mxCell id="j5U2qsDuNFhOHYrmy9tw-12" value="" style="endArrow=none;html=1;exitX=1;exitY=1;exitDx=0;exitDy=0;" edge="1" parent="1" source="j5U2qsDuNFhOHYrmy9tw-3" target="j5U2qsDuNFhOHYrmy9tw-11">
          <mxGeometry width="50" height="50" relative="1" as="geometry">
            <mxPoint x="330" y="370" as="sourcePoint" />
            <mxPoint x="380" y="320" as="targetPoint" />
          </mxGeometry>
        </mxCell>
        <mxCell id="j5U2qsDuNFhOHYrmy9tw-13" value="" style="endArrow=none;html=1;exitX=1;exitY=0.25;exitDx=0;exitDy=0;entryX=0;entryY=1;entryDx=0;entryDy=0;" edge="1" parent="1" source="j5U2qsDuNFhOHYrmy9tw-11" target="j5U2qsDuNFhOHYrmy9tw-7">
          <mxGeometry width="50" height="50" relative="1" as="geometry">
            <mxPoint x="490" y="440" as="sourcePoint" />
            <mxPoint x="540" y="390" as="targetPoint" />
          </mxGeometry>
        </mxCell>
        <mxCell id="j5U2qsDuNFhOHYrmy9tw-14" value="baidu server" style="rounded=0;whiteSpace=wrap;html=1;" vertex="1" parent="1">
          <mxGeometry x="240" y="400" width="190" height="110" as="geometry" />
        </mxCell>
        <mxCell id="j5U2qsDuNFhOHYrmy9tw-17" value="80" style="ellipse;whiteSpace=wrap;html=1;aspect=fixed;" vertex="1" parent="1">
          <mxGeometry x="260" y="414" width="40" height="40" as="geometry" />
        </mxCell>
        <mxCell id="j5U2qsDuNFhOHYrmy9tw-18" value="" style="endArrow=none;html=1;exitX=1;exitY=1;exitDx=0;exitDy=0;" edge="1" parent="1" source="j5U2qsDuNFhOHYrmy9tw-3" target="j5U2qsDuNFhOHYrmy9tw-17">
          <mxGeometry width="50" height="50" relative="1" as="geometry">
            <mxPoint x="200" y="140" as="sourcePoint" />
            <mxPoint x="730" y="140" as="targetPoint" />
          </mxGeometry>
        </mxCell>
        <mxCell id="j5U2qsDuNFhOHYrmy9tw-19" value="http://www.baidu.com" style="edgeLabel;html=1;align=center;verticalAlign=middle;resizable=0;points=[];" vertex="1" connectable="0" parent="j5U2qsDuNFhOHYrmy9tw-18">
          <mxGeometry x="-0.0377" y="1" relative="1" as="geometry">
            <mxPoint as="offset" />
          </mxGeometry>
        </mxCell>
      </root>
    </mxGraphModel>
  </diagram>
</mxfile>
